<?xml version="1.0" ?><svg data-name="Layer 13" id="Layer_13" viewBox="0 0 32 32" xmlns="http://www.w3.org/2000/svg"><title/><path d="M13,3A4.984,4.984,0,0,0,8.236,6.561,3.463,3.463,0,0,0,6.5,6.083a3.5,3.5,0,1,0,0,7L13,13A5,5,0,0,0,13,3Z" style="fill:#a9e5ff"/><circle cx="19" cy="13" r="6" style="fill:#a9e5ff"/><path d="M29,23a6,6,0,0,1-6,6H7.5a4.5,4.5,0,0,1-.21-8.99,7,7,0,1,1,13.67-2.65A5.762,5.762,0,0,1,23,17,6,6,0,0,1,29,23Z" style="fill:#a9e5ff"/><path d="M25.145,16.339A6.989,6.989,0,0,0,19,6c-0.118,0-.232.022-0.35,0.028A5.99,5.99,0,0,0,7.708,5.166,4.5,4.5,0,1,0,6.5,14H7.082A7.94,7.94,0,0,0,6,18a8.154,8.154,0,0,0,.087,1.188A5.5,5.5,0,0,0,7.5,30H23A7,7,0,0,0,25.145,16.339ZM24,13a4.976,4.976,0,0,1-1.027,3,7.013,7.013,0,0,0-1.2.1,7.912,7.912,0,0,0-6.808-6.044A4.995,4.995,0,0,1,24,13ZM4,9.5A2.5,2.5,0,0,1,6.5,7a2.435,2.435,0,0,1,1.234.332,1,1,0,0,0,1.459-.559,3.993,3.993,0,0,1,7.471-.357,7,7,0,0,0-4.025,3.709A7.965,7.965,0,0,0,8.726,12H6.5A2.5,2.5,0,0,1,4,9.5ZM23,28H7.5a3.5,3.5,0,0,1-.164-6.991,1,1,0,0,0,.913-1.284A6.014,6.014,0,0,1,14,12a5.942,5.942,0,0,1,5.964,5.446,1,1,0,0,0,1.347.85A4.8,4.8,0,0,1,23,18,5,5,0,0,1,23,28Z" style="fill:#158fcc"/><path d="M20.663,5.175a1,1,0,0,0,1.186-.77l0.208-.978A1,1,0,1,0,20.1,3.011l-0.208.978A1,1,0,0,0,20.663,5.175Z" style="fill:#158fcc"/><path d="M26.825,14.663a1,1,0,0,0,.77,1.186l0.978,0.208a1,1,0,0,0,.416-1.956l-0.978-.208A1,1,0,0,0,26.825,14.663Z" style="fill:#158fcc"/><path d="M26.549,9.1a1,1,0,0,0,.543-0.161l0.839-.544a1,1,0,1,0-1.089-1.678L26,7.259A1,1,0,0,0,26.549,9.1Z" style="fill:#158fcc"/></svg>