<?xml version="1.0" ?><svg id="Layer_1" style="enable-background:new 250 -250 1000 1000;" version="1.1" viewBox="250 -250 1000 1000" xml:space="preserve" xmlns="http://www.w3.org/2000/svg" xmlns:xlink="http://www.w3.org/1999/xlink"><style type="text/css">
	.st0{fill:#A4C9FF;}
	.st1{fill:#3762CC;}
</style><g id="XMLID_3548_"><path class="st0" d="M718,425.1H573.7c0,0-66.7-21.4-70.1-80.6c0,0-6-76.1,78.7-66.7l14.9-82.6l23-28.4l33.4-18.4   l43.1-3l48.7,34.9l24.4,32.2l12.4-19.5l22.5-55.9l52.5-36.7l69.7,8.2l31.1,28.5l15.4,33.4l5.6,42.7l-3,25.9l58.1-5.6l45.7,25.3   l18,25.3l4.5,61.1l-17.3,47.6l-19.1,26.2l-43.9,9.7l-98.6,6.8l-21.7-2.6L718,425.1z" id="XMLID_3464_"/><path class="st0" d="M613.5,118.4C596.8,48.2,639-22,707.8-38.4S846-11.2,862.7,59.1" id="XMLID_3463_"/><path class="st0" d="M511.9,71c0.2-7.1,6.3-12.7,13.3-12.5l41.2,1.4c7.1,0.2,12.7,6.2,12.5,13.3   c-0.2,7-6,12.5-12.9,12.5h-0.4l-41.2-1.3C517.2,84.1,511.7,78.2,511.9,71z" id="XMLID_3754_"/><path class="st0" d="M547.3-27.5c3.7-6.1,11.6-8,17.7-4.3l35.2,21.4c6.1,3.7,8,11.6,4.3,17.7   c-2.4,4-6.7,6.2-11,6.2c-2.3,0-4.6-0.6-6.7-1.9L551.6-9.7C545.5-13.4,543.6-21.4,547.3-27.5z" id="XMLID_3757_"/><path class="st0" d="M603.2-77.6c-3.5-6.2-1.3-14.1,4.9-17.6c6.2-3.5,14.1-1.3,17.6,4.9l20.2,36   c3.5,6.2,1.3,14.1-4.9,17.6c-2,1.1-4.2,1.7-6.3,1.7c-4.5,0-8.9-2.4-11.3-6.6L603.2-77.6z" id="XMLID_3758_"/><path class="st0" d="M682-110.4c-0.9-7.1,4-13.6,11.1-14.5c7.1-0.9,13.6,4,14.5,11.1l5.5,40.9   c0.9,7.1-4,13.6-11.1,14.5c-0.6,0.1-1.2,0.1-1.7,0.1c-6.4,0-11.9-4.7-12.8-11.2L682-110.4z" id="XMLID_3761_"/><path class="st0" d="M731.2,508.4v17.8l14.4-10.5c4.6-3.3,11-2.4,14.4,2.3c3.4,4.6,2.3,11-2.3,14.4l-18.4,13.4   l19.3,12c4.8,3,6.3,9.4,3.3,14.2c-1.9,3.1-5.3,4.9-8.7,4.9c-1.9,0-3.7-0.5-5.4-1.6l-16.5-10.3v19.5c0,5.7-4.6,10.3-10.3,10.3   s-10.3-4.6-10.3-10.3v-17.7L696.2,577c-1.8,1.3-3.9,2-6,2c-3.2,0-6.3-1.5-8.3-4.2c-3.3-4.6-2.3-11,2.3-14.4l18.4-13.4l-19.3-12   c-4.8-3-6.3-9.4-3.3-14.2c3-4.8,9.3-6.3,14.2-3.3l16.5,10.3v-19.5c0-5.7,4.6-10.3,10.3-10.3S731.2,502.7,731.2,508.4z" id="XMLID_3763_"/><path class="st0" d="M764.4-74.6l15.3-38.3c2.6-6.6,10.2-9.8,16.8-7.2c6.6,2.6,9.8,10.2,7.2,16.8L788.4-65   c-2,5-6.9,8.1-12,8.1c-1.6,0-3.2-0.3-4.8-0.9C765-60.5,761.8-68,764.4-74.6z" id="XMLID_3764_"/><path class="st0" d="M815.6,350.3v45l36.4-26.5c5.8-4.2,13.8-2.9,18,2.8c4.2,5.8,2.9,13.8-2.8,18l-41.4,30.2   l43.5,27.1c6,3.8,7.9,11.7,4.1,17.8c-2.4,3.9-6.7,6.1-11,6.1c-2.3,0-4.7-0.6-6.8-2l-40-24.9v47.1c0,7.1-5.8,12.9-12.9,12.9   c-7.1,0-12.9-5.8-12.9-12.9v-45l-36.4,26.5c-2.3,1.7-4.9,2.5-7.6,2.5c-4,0-7.9-1.8-10.4-5.3c-4.2-5.8-2.9-13.8,2.8-18l41.4-30.2   l-43.5-27.1c-6.1-3.8-7.9-11.7-4.1-17.8c3.8-6,11.7-7.9,17.8-4.1l40,24.9v-47.2c0-7.1,5.8-12.9,12.9-12.9   C809.8,337.4,815.6,343.2,815.6,350.3z" id="XMLID_3765_"/><path class="st0" d="M640.1-12.1c24.9-24.3,57.8-37.5,92.5-37.2c57.6,0.6,115.8,37.7,138.5,110   c-10.8,0.3-21.2,1.9-31.1,4.9C825.8,7.9,779.8-23,732.4-23.5c-27.8-0.2-54.2,10.3-74.2,29.9c-19.9,19.5-31,45.6-31.2,73.5   c-0.1,11.6,1.6,23,5.3,33.9c-8.4,2.7-16.3,6.3-23.6,10.7c-5.2-14.4-7.7-29.4-7.5-44.9C601.5,44.8,615.3,12.3,640.1-12.1z" id="XMLID_3766_"/><path class="st0" d="M828.6-24.4c-4.5-5.6-3.6-13.7,2-18.2l32.1-25.8c5.6-4.5,13.7-3.6,18.2,2   c4.5,5.5,3.6,13.7-2,18.1l-32.1,25.8c-2.4,1.9-5.2,2.9-8.1,2.9C834.9-19.6,831.2-21.2,828.6-24.4z" id="XMLID_3767_"/><path class="st0" d="M912.5,602.2c-1.9,3.1-5.3,4.8-8.7,4.8c-1.9,0-3.7-0.5-5.4-1.5l-16.5-10.3v19.5   c0,5.7-4.6,10.3-10.3,10.3c-5.7,0-10.3-4.6-10.3-10.3V597l-14.4,10.5c-1.8,1.3-3.9,2-6,2c-3.2,0-6.3-1.5-8.3-4.2   c-3.3-4.6-2.3-11,2.3-14.4l18.4-13.4l-19.3-12c-4.8-3-6.3-9.3-3.3-14.2s9.3-6.3,14.2-3.3l16.5,10.3v-19.5c0-5.7,4.6-10.3,10.3-10.3   c5.7,0,10.3,4.6,10.3,10.3v17.7l14.4-10.5c4.6-3.3,11-2.3,14.4,2.3c3.4,4.6,2.3,11-2.2,14.4L889.9,576l19.3,12   C914,591.1,915.5,597.4,912.5,602.2z" id="XMLID_3769_"/><path class="st0" d="M1116.1,359.1c-10.2,54.6-51.1,86.5-110.1,86.5c-2.3,0-4.6,0-6.9-0.1   c-17.2-0.7-50.9-0.6-92.2-1.7c-6.3-0.2-12.4-6.5-11.8-12.8c0.4-4.7,4.5-10.8,17.1-11.3c15.9-0.7,50.3-0.9,88,0   c67.7,1.8,85.8-39.7,90.6-65.3c8-43.2-11.3-93-39.8-102.7c-47.8-16.1-64.9,0.3-65.1,0.5c-3.9,4.5-10.5,5.5-15.8,2.7   c-5.4-2.9-7.7-9.2-6.1-15c0.1-0.5,14-50.4-8.7-87.3c-12.3-19.9-33.6-32.9-63.2-38.5c-22.7-4.3-41.5-0.6-57.6,11.2   c-38.4,28.1-46.5,92.2-46.6,92.9c-0.7,5.5-4.9,10.1-10.5,11.1c-5.5,1-11.1-1.6-13.8-6.6c-0.3-0.6-36.6-66.2-97.5-62.9   c-18.8,1-33.4,7.8-44.8,20.7c-29.7,33.7-25.6,96.4-25.6,97c0.3,3.7-1,7.3-3.6,9.9c-2.6,2.6-6.1,4.1-9.8,3.9   c-2.1-0.1-4.3-0.2-6.3-0.2c-37.2,0-60.6,15.9-63.1,43.3c-2.8,30.6,21.9,67.2,63,72.9c23.6,3.3,44.3,3.6,68.4,3.8   c4.8,0.1,9.7,0.1,14.8,0.2c16.5,0.3,36.3,0.7,57.8,1.2c14.2,3.5,9.9,25.8-1.5,25.8c-21.3-0.4-40.7-0.8-56.7-1.2   c-5-0.1-9.9-0.1-14.7-0.2c-23.8-0.3-46.3-0.6-71.6-4.1c-46.6-6.4-76.1-40.7-83.6-76.1h-39.4c-0.6,0-1.3,0.1-2,0.1   c-15.4,0-42.3-12.2-51.4-23.9c-12.9-16.7-20-49.9-9.5-76.5c7.8-19.7,24-32.5,45.5-36c7.2-1.2,24.4-1.6,36.9-1.8   c0.3-9.3,2.5-21.2,10.1-32.1c9.8-14,25.6-22.4,47.1-25c17.2-2.1,48.4,0.9,68.5,11.2c2.3-3.3,4.7-6.4,7.3-9.5   c16-18.1,37.1-28,62.8-29.4c49.4-2.7,84.5,27.7,103.9,51c7.3-25,22-59.8,50.5-80.6c21.9-16,48-21.3,77.7-15.7   c37.1,7,64.2,24,80.4,50.5c17,27.8,18.1,59.7,16,81.6c14.7-3.4,36.2-3.6,65.8,6.5C1100,241,1126.5,302.7,1116.1,359.1z" id="XMLID_3770_"/><g id="XMLID_2564_"><g id="XMLID_2703_"><g id="XMLID_2704_"><g id="XMLID_2706_"><g id="XMLID_2707_"><path class="st1" d="M840.6,441h0.8v-0.6L840.6,441z M1059.2,227.2c-29.7-10-51.1-9.8-65.8-6.5        c2.1-21.9,1-53.8-16-81.6c-16.2-26.5-43.3-43.5-80.4-50.5c-29.7-5.6-55.8-0.3-77.7,15.7c-28.5,20.9-43.2,55.6-50.5,80.6        c-19.4-23.3-54.5-53.7-103.9-51c-25.7,1.3-46.8,11.2-62.8,29.4c-2.7,3-5.1,6.2-7.3,9.5c-4.8,7.1-8.8,14.7-11.9,22.5        c-10.5,25.9-12.7,53.8-12.9,70c-55.6,2.1-79.1,34.2-82.4,65.6c0,0.3-0.1,0.7-0.1,1c-0.7,8.1-0.2,16.5,1.6,24.8        c7.5,35.3,37,69.7,83.6,76.1c25.3,3.5,47.8,3.8,71.6,4.1c4.8,0.1,9.7,0.1,14.7,0.2c16.1,0.3,35.4,0.7,56.7,1.2        c11.5,0,15.7-22.3,1.5-25.8c-21.6-0.5-41.3-0.8-57.8-1.2c-5-0.1-9.9-0.1-14.8-0.2c-24-0.3-44.7-0.5-68.4-3.8        c-41.2-5.7-65.8-42.3-63-72.9c2.5-27.4,25.9-43.3,63.1-43.3c2.1,0,4.2,0.1,6.3,0.2c3.7,0.2,7.2-1.3,9.8-3.9        c2.6-2.6,3.9-6.3,3.6-9.9c0-0.6-4.2-63.3,25.6-97c11.4-12.9,26-19.6,44.8-20.7c60.9-3.3,97.2,62.3,97.5,62.9        c2.6,5,8.3,7.6,13.8,6.6c5.5-1,9.8-5.6,10.5-11.1c0.1-0.6,8.2-64.8,46.6-92.9c16.1-11.8,34.9-15.4,57.6-11.2        c29.6,5.6,50.9,18.6,63.2,38.5c22.7,36.9,8.8,86.7,8.7,87.3c-1.7,5.8,0.7,12.1,6.1,15c5.3,2.9,11.8,1.9,15.8-2.7        c0.2-0.2,17.4-16.7,65.1-0.5c28.5,9.7,47.8,59.5,39.8,102.7c-4.8,25.6-22.9,67.1-90.6,65.3c-37.7-1-72.1-0.8-88,0        c-12.6,0.6-16.7,6.6-17.1,11.3c-0.6,6.3,5.5,12.6,11.8,12.8c41.3,1.1,75,1,92.2,1.7c2.3,0.1,4.7,0.1,6.9,0.1        c59,0,99.9-32,110.1-86.5C1126.5,302.7,1100,241,1059.2,227.2z" id="XMLID_2708_"/></g></g></g></g><g id="XMLID_2652_"><g id="XMLID_2696_"><g id="XMLID_2697_"><g id="XMLID_2698_"><g id="XMLID_2700_"><g id="XMLID_2701_"><path class="st1" d="M871.1,60.7c-10.8,0.3-21.2,1.9-31.1,4.9C825.8,7.9,779.8-23,732.4-23.5          c-27.8-0.2-54.2,10.3-74.2,29.9c-19.9,19.5-31,45.6-31.2,73.5c-0.1,11.6,1.6,23,5.3,33.9c-8.4,2.7-16.3,6.3-23.6,10.7          c-5.2-14.4-7.7-29.4-7.5-44.9c0.3-34.8,14.2-67.4,39-91.7c24.9-24.3,57.8-37.5,92.5-37.2C790.2-48.7,848.4-11.6,871.1,60.7z          " id="XMLID_3222_"/></g></g></g></g></g><g id="XMLID_2690_"><g id="XMLID_2691_"><g id="XMLID_2692_"><g id="XMLID_2693_"><g id="XMLID_2694_"><path class="st1" d="M702-58.4c-0.6,0.1-1.2,0.1-1.7,0.1c-6.4,0-11.9-4.7-12.8-11.2l-5.5-40.9          c-0.9-7.1,4-13.6,11.1-14.5c7.1-0.9,13.6,4,14.5,11.1l5.5,40.9C714-65.9,709.1-59.4,702-58.4z" id="XMLID_3221_"/></g></g></g></g></g><g id="XMLID_2682_"><g id="XMLID_2684_"><g id="XMLID_2685_"><g id="XMLID_2686_"><g id="XMLID_2687_"><path class="st1" d="M803.7-103.3L788.4-65c-2,5-6.9,8.1-12,8.1c-1.6,0-3.2-0.3-4.8-0.9          c-6.6-2.6-9.8-10.2-7.2-16.8l15.3-38.3c2.6-6.6,10.2-9.8,16.8-7.2C803.1-117.5,806.3-110,803.7-103.3z" id="XMLID_3211_"/></g></g></g></g></g><g id="XMLID_2675_"><g id="XMLID_2676_"><g id="XMLID_2678_"><g id="XMLID_2679_"><g id="XMLID_2680_"><path class="st1" d="M878.9-48.3l-32.1,25.8c-2.4,1.9-5.2,2.9-8.1,2.9c-3.8,0-7.5-1.7-10.1-4.8          c-4.5-5.6-3.6-13.7,2-18.2l32.1-25.8c5.6-4.5,13.7-3.6,18.2,2C885.4-60.9,884.5-52.7,878.9-48.3z" id="XMLID_3210_"/></g></g></g></g></g><g id="XMLID_2668_"><g id="XMLID_2669_"><g id="XMLID_2670_"><g id="XMLID_2672_"><g id="XMLID_2673_"><path class="st1" d="M578.9,73.2c-0.2,7-6,12.5-12.9,12.5h-0.4l-41.2-1.3c-7.1-0.2-12.7-6.2-12.5-13.3          s6.3-12.7,13.3-12.5l41.2,1.4C573.6,60.1,579.1,66.1,578.9,73.2z" id="XMLID_3209_"/></g></g></g></g></g><g id="XMLID_2661_"><g id="XMLID_2662_"><g id="XMLID_2663_"><g id="XMLID_2664_"><g id="XMLID_2666_"><path class="st1" d="M604.6,7.3c-2.4,4-6.7,6.2-11,6.2c-2.3,0-4.6-0.6-6.7-1.9L551.6-9.7          c-6.1-3.7-8-11.6-4.3-17.7c3.7-6.1,11.6-8,17.7-4.3l35.2,21.4C606.4-6.7,608.3,1.3,604.6,7.3z" id="XMLID_3205_"/></g></g></g></g></g><g id="XMLID_2654_"><g id="XMLID_2655_"><g id="XMLID_2656_"><g id="XMLID_2657_"><g id="XMLID_2658_"><path class="st1" d="M641-36.7c-2,1.1-4.2,1.7-6.3,1.7c-4.5,0-8.9-2.4-11.3-6.6l-20.2-36          c-3.5-6.2-1.3-14.1,4.9-17.6c6.2-3.5,14.1-1.3,17.6,4.9l20.2,36C649.4-48,647.2-40.2,641-36.7z" id="XMLID_3204_"/></g></g></g></g></g></g><g id="XMLID_2645_"><g id="XMLID_2646_"><g id="XMLID_2648_"><g id="XMLID_2649_"><g id="XMLID_2650_"><path class="st1" d="M612.1,189.2l-24,9.6c-0.8-1-2.6-2.3-5.3-3.5c-10.5-5-33.9-10.4-53.5-8.1         c-13.8,1.7-23.5,6.4-28.9,14c-8.2,11.5-4.9,27.2-4.9,27.3c0.8,3.8-0.1,7.8-2.5,10.9c-2.5,3-6.1,4.9-10,4.9         c-14.4,0-39.8,0.5-46.7,1.6c-12.7,2.1-21.1,8.6-25.6,20c-6.7,17-2.3,40.6,5.9,51.2c4.3,5.6,24.6,14.4,30.8,13.9         c0.5-0.1,0.9-0.1,1.5-0.1h51.2v25.8h-50.6c-0.6,0-1.3,0.1-2,0.1c-15.4,0-42.3-12.2-51.4-23.9c-12.9-16.7-20-49.9-9.5-76.5         c7.8-19.7,24-32.5,45.5-36c7.2-1.2,24.4-1.6,36.9-1.8c0.3-9.3,2.5-21.2,10.1-32.1c9.8-14,25.6-22.4,47.1-25         c17.2-2.1,48.4,0.9,68.5,11.2C603,176.9,609.4,182.4,612.1,189.2z" id="XMLID_3207_"/></g></g></g></g></g><g id="XMLID_2611_"><g id="XMLID_2632_"><g id="XMLID_2639_"><g id="XMLID_2641_"><g id="XMLID_2642_"><g id="XMLID_2643_"><polygon class="st1" id="XMLID_2644_" points="841.4,440.4 841.4,441 840.6,441         "/></g></g></g></g><g id="XMLID_2633_"><g id="XMLID_2635_"><g id="XMLID_2636_"><g id="XMLID_2637_"><path class="st1" d="M815.6,350.3v140.8c0,7.1-5.8,12.9-12.9,12.9c-7.1,0-12.9-5.8-12.9-12.9V350.3          c0-7.1,5.8-12.9,12.9-12.9C809.8,337.4,815.6,343.2,815.6,350.3z" id="XMLID_3220_"/></g></g></g></g></g><g id="XMLID_2619_"><g id="XMLID_2626_"><g id="XMLID_2627_"><g id="XMLID_2629_"><g id="XMLID_2630_"><polygon class="st1" id="XMLID_2631_" points="841.4,440.4 841.4,441 840.6,441         "/></g></g></g></g><g id="XMLID_2620_"><g id="XMLID_2621_"><g id="XMLID_2623_"><g id="XMLID_2624_"><path class="st1" d="M873.4,464.7c-2.4,3.9-6.7,6.1-11,6.1c-2.3,0-4.7-0.6-6.8-2l-40-24.9l-12.3-7.7          l-13.5-8.4l-10.2-6.3l-43.5-27.1c-6.1-3.8-7.9-11.7-4.1-17.8c3.8-6,11.7-7.9,17.8-4.1l40,24.9l12.3,7.7l13.5,8.4l10.2,6.3          l43.5,27.1C875.3,450.7,877.2,458.7,873.4,464.7z" id="XMLID_3223_"/></g></g></g></g></g><g id="XMLID_2612_"><g id="XMLID_2613_"><g id="XMLID_2614_"><g id="XMLID_2615_"><g id="XMLID_2617_"><path class="st1" d="M867.2,389.7l-41.4,30.2l-10.2,7.4l-12.3,9l-13.5,9.8l-36.4,26.5          c-2.3,1.7-4.9,2.5-7.6,2.5c-4,0-7.9-1.8-10.4-5.3c-4.2-5.8-2.9-13.8,2.8-18l41.4-30.2l10.2-7.4l12.3-9l13.5-9.8l36.4-26.5          c5.8-4.2,13.8-2.9,18,2.8C874.2,377.4,872.9,385.5,867.2,389.7z" id="XMLID_3219_"/></g></g></g></g></g></g><g id="XMLID_2588_"><g id="XMLID_2603_"><g id="XMLID_2605_"><g id="XMLID_2606_"><g id="XMLID_2607_"><g id="XMLID_2608_"><path class="st1" d="M731.2,508.4v76c0,5.7-4.6,10.3-10.3,10.3s-10.3-4.6-10.3-10.3v-76          c0-5.7,4.6-10.3,10.3-10.3S731.2,502.7,731.2,508.4z" id="XMLID_3218_"/></g></g></g></g></g><g id="XMLID_2596_"><g id="XMLID_2597_"><g id="XMLID_2599_"><g id="XMLID_2600_"><g id="XMLID_2601_"><path class="st1" d="M761.9,571.9c-1.9,3.1-5.3,4.9-8.7,4.9c-1.9,0-3.7-0.5-5.4-1.6l-16.5-10.3l-9.8-6.1          l-10.7-6.7l-8.1-5l-19.3-12c-4.8-3-6.3-9.4-3.3-14.2c3-4.8,9.3-6.3,14.2-3.3l16.5,10.3l9.8,6.1l10.7,6.7l8.1,5.1l19.3,12          C763.4,560.7,764.9,567,761.9,571.9z" id="XMLID_3217_"/></g></g></g></g></g><g id="XMLID_2589_"><g id="XMLID_2590_"><g id="XMLID_2591_"><g id="XMLID_2593_"><g id="XMLID_2594_"><path class="st1" d="M757.6,532.3l-18.4,13.4l-8.1,5.9l-9.8,7.2l-10.7,7.8L696.2,577c-1.8,1.3-3.9,2-6,2          c-3.2,0-6.3-1.5-8.3-4.2c-3.3-4.6-2.3-11,2.3-14.4l18.4-13.4l8.1-5.9l9.8-7.2l10.7-7.8l14.4-10.5c4.6-3.3,11-2.4,14.4,2.3          C763.2,522.5,762.2,529,757.6,532.3z" id="XMLID_3216_"/></g></g></g></g></g></g><g id="XMLID_2566_"><g id="XMLID_2581_"><g id="XMLID_2582_"><g id="XMLID_2583_"><g id="XMLID_2584_"><g id="XMLID_2585_"><path class="st1" d="M881.8,538.7v76c0,5.7-4.6,10.3-10.3,10.3c-5.7,0-10.3-4.6-10.3-10.3v-76          c0-5.7,4.6-10.3,10.3-10.3C877.2,528.4,881.8,533.1,881.8,538.7z" id="XMLID_3215_"/></g></g></g></g></g><g id="XMLID_2573_"><g id="XMLID_2575_"><g id="XMLID_2576_"><g id="XMLID_2577_"><g id="XMLID_2578_"><path class="st1" d="M912.5,602.2c-1.9,3.1-5.3,4.8-8.7,4.8c-1.9,0-3.7-0.5-5.4-1.5l-16.5-10.3l-9.8-6.1          l-10.7-6.7l-8.1-5.1l-19.3-12c-4.8-3-6.3-9.3-3.3-14.2s9.3-6.3,14.2-3.3l16.5,10.3l9.8,6.1l10.8,6.7l8.1,5l19.3,12          C914,591.1,915.5,597.4,912.5,602.2z" id="XMLID_3214_"/></g></g></g></g></g><g id="XMLID_2567_"><g id="XMLID_2568_"><g id="XMLID_2569_"><g id="XMLID_2570_"><g id="XMLID_2571_"><path class="st1" d="M908.3,562.7L889.9,576l-8.1,5.9l-9.8,7.2l-10.7,7.8l-14.4,10.5c-1.8,1.3-3.9,2-6,2          c-3.2,0-6.3-1.5-8.3-4.2c-3.3-4.6-2.3-11,2.3-14.4l18.4-13.4l8.1-5.9l9.8-7.2l10.8-7.8l14.4-10.5c4.6-3.3,11-2.3,14.4,2.3          C913.9,552.9,912.9,559.3,908.3,562.7z" id="XMLID_3213_"/></g></g></g></g></g></g></g></g></svg>